<svg xmlns="http://www.w3.org/2000/svg" viewBox="0 0 360 780" width="360" height="780"><rect width="360" height="780" fill="#0c1218"/><rect x="24.0" y="18.0" width="34.0" height="9.0" rx="4.5" fill="#dfe6e8" opacity="0.9"/><rect x="282.0" y="19.0" width="18.0" height="8.0" rx="2" fill="#dfe6e8" opacity="0.8"/><rect x="304.0" y="19.0" width="14.0" height="8.0" rx="2" fill="#dfe6e8" opacity="0.8"/><rect x="322.0" y="18.0" width="20.0" height="10.0" rx="3" fill="#dfe6e8" opacity="0.8"/><rect x="130.0" y="12.0" width="100.0" height="24.0" rx="12" fill="#000" opacity="1"/><rect x="24.0" y="56.0" width="70.0" height="7.0" rx="3.5" fill="#4b5a68" opacity="1"/><rect x="24.0" y="72.0" width="140.0" height="16.0" rx="8.0" fill="#dfe6e8" opacity="1"/><circle cx="318.0" cy="70.0" r="18" fill="#2c7f86" opacity="1"/><circle cx="318.0" cy="66.0" r="7" fill="#5ce1e6" opacity="0.9"/><rect x="20.0" y="112.0" width="320.0" height="300.0" rx="18" fill="#141d27" opacity="1"/><rect x="40.0" y="132.0" width="110.0" height="10.0" rx="5.0" fill="#dfe6e8" opacity="1"/><circle cx="284.0" cy="137.0" r="12" fill="#1a2531" opacity="1"/><circle cx="316.0" cy="137.0" r="12" fill="#1a2531" opacity="1"/><rect x="44.0" y="168.0" width="14.0" height="5.0" rx="2.5" fill="#4b5a68" opacity="1"/><rect x="86.0" y="168.0" width="14.0" height="5.0" rx="2.5" fill="#4b5a68" opacity="1"/><rect x="128.0" y="168.0" width="14.0" height="5.0" rx="2.5" fill="#4b5a68" opacity="1"/><rect x="170.0" y="168.0" width="14.0" height="5.0" rx="2.5" fill="#4b5a68" opacity="1"/><rect x="212.0" y="168.0" width="14.0" height="5.0" rx="2.5" fill="#4b5a68" opacity="1"/><rect x="254.0" y="168.0" width="14.0" height="5.0" rx="2.5" fill="#4b5a68" opacity="1"/><rect x="296.0" y="168.0" width="14.0" height="5.0" rx="2.5" fill="#4b5a68" opacity="1"/><rect x="45.0" y="201.0" width="12.0" height="6.0" rx="3.0" fill="#dfe6e8" opacity="0.75"/><rect x="87.0" y="201.0" width="12.0" height="6.0" rx="3.0" fill="#dfe6e8" opacity="0.75"/><rect x="129.0" y="201.0" width="12.0" height="6.0" rx="3.0" fill="#dfe6e8" opacity="0.75"/><rect x="171.0" y="201.0" width="12.0" height="6.0" rx="3.0" fill="#dfe6e8" opacity="0.75"/><rect x="213.0" y="201.0" width="12.0" height="6.0" rx="3.0" fill="#dfe6e8" opacity="0.75"/><circle cx="219.0" cy="216.0" r="2.5" fill="#5ce1e6" opacity="1"/><rect x="255.0" y="201.0" width="12.0" height="6.0" rx="3.0" fill="#dfe6e8" opacity="0.75"/><rect x="297.0" y="201.0" width="12.0" height="6.0" rx="3.0" fill="#dfe6e8" opacity="0.75"/><rect x="45.0" y="243.0" width="12.0" height="6.0" rx="3.0" fill="#dfe6e8" opacity="0.75"/><rect x="87.0" y="243.0" width="12.0" height="6.0" rx="3.0" fill="#dfe6e8" opacity="0.75"/><rect x="129.0" y="243.0" width="12.0" height="6.0" rx="3.0" fill="#dfe6e8" opacity="0.75"/><circle cx="135.0" cy="258.0" r="2.5" fill="#5ce1e6" opacity="1"/><rect x="171.0" y="243.0" width="12.0" height="6.0" rx="3.0" fill="#dfe6e8" opacity="0.75"/><rect x="213.0" y="243.0" width="12.0" height="6.0" rx="3.0" fill="#dfe6e8" opacity="0.75"/><rect x="255.0" y="243.0" width="12.0" height="6.0" rx="3.0" fill="#dfe6e8" opacity="0.75"/><rect x="297.0" y="243.0" width="12.0" height="6.0" rx="3.0" fill="#dfe6e8" opacity="0.75"/><rect x="45.0" y="285.0" width="12.0" height="6.0" rx="3.0" fill="#dfe6e8" opacity="0.75"/><rect x="87.0" y="285.0" width="12.0" height="6.0" rx="3.0" fill="#dfe6e8" opacity="0.75"/><rect x="129.0" y="285.0" width="12.0" height="6.0" rx="3.0" fill="#dfe6e8" opacity="0.75"/><circle cx="177.0" cy="288.0" r="17" fill="#5ce1e6" opacity="1"/><rect x="170.0" y="285.0" width="14.0" height="6.0" rx="3.0" fill="#05070a" opacity="1"/><rect x="213.0" y="285.0" width="12.0" height="6.0" rx="3.0" fill="#dfe6e8" opacity="0.75"/><rect x="255.0" y="285.0" width="12.0" height="6.0" rx="3.0" fill="#dfe6e8" opacity="0.75"/><rect x="297.0" y="285.0" width="12.0" height="6.0" rx="3.0" fill="#dfe6e8" opacity="0.75"/><rect x="45.0" y="327.0" width="12.0" height="6.0" rx="3.0" fill="#dfe6e8" opacity="0.75"/><rect x="87.0" y="327.0" width="12.0" height="6.0" rx="3.0" fill="#dfe6e8" opacity="0.75"/><circle cx="93.0" cy="342.0" r="2.5" fill="#5ce1e6" opacity="1"/><rect x="129.0" y="327.0" width="12.0" height="6.0" rx="3.0" fill="#dfe6e8" opacity="0.75"/><rect x="171.0" y="327.0" width="12.0" height="6.0" rx="3.0" fill="#dfe6e8" opacity="0.75"/><rect x="213.0" y="327.0" width="12.0" height="6.0" rx="3.0" fill="#dfe6e8" opacity="0.75"/><rect x="255.0" y="327.0" width="12.0" height="6.0" rx="3.0" fill="#dfe6e8" opacity="0.75"/><circle cx="261.0" cy="342.0" r="2.5" fill="#5ce1e6" opacity="1"/><rect x="297.0" y="327.0" width="12.0" height="6.0" rx="3.0" fill="#dfe6e8" opacity="0.75"/><rect x="45.0" y="369.0" width="12.0" height="6.0" rx="3.0" fill="#dfe6e8" opacity="0.75"/><rect x="87.0" y="369.0" width="12.0" height="6.0" rx="3.0" fill="#dfe6e8" opacity="0.75"/><rect x="129.0" y="369.0" width="12.0" height="6.0" rx="3.0" fill="#dfe6e8" opacity="0.75"/><rect x="171.0" y="369.0" width="12.0" height="6.0" rx="3.0" fill="#34424f" opacity="0.75"/><rect x="213.0" y="369.0" width="12.0" height="6.0" rx="3.0" fill="#34424f" opacity="0.75"/><rect x="255.0" y="369.0" width="12.0" height="6.0" rx="3.0" fill="#34424f" opacity="0.75"/><rect x="297.0" y="369.0" width="12.0" height="6.0" rx="3.0" fill="#34424f" opacity="0.75"/><rect x="20.0" y="430.0" width="320.0" height="70.0" rx="16" fill="#141d27" opacity="1"/><rect x="20.0" y="430.0" width="5.0" height="70.0" rx="2" fill="#5ce1e6" opacity="1"/><rect x="40.0" y="446.0" width="160.0" height="9.0" rx="4.5" fill="#dfe6e8" opacity="1"/><rect x="40.0" y="464.0" width="110.0" height="6.0" rx="3.0" fill="#4b5a68" opacity="1"/><rect x="264.0" y="448.0" width="56.0" height="8.0" rx="4.0" fill="#5ce1e6" opacity="0.8"/><rect x="20.0" y="512.0" width="320.0" height="70.0" rx="16" fill="#141d27" opacity="1"/><rect x="20.0" y="512.0" width="5.0" height="70.0" rx="2" fill="#4b5a68" opacity="1"/><rect x="40.0" y="528.0" width="160.0" height="9.0" rx="4.5" fill="#dfe6e8" opacity="1"/><rect x="40.0" y="546.0" width="110.0" height="6.0" rx="3.0" fill="#4b5a68" opacity="1"/><rect x="264.0" y="530.0" width="56.0" height="8.0" rx="4.0" fill="#5ce1e6" opacity="0.8"/><rect x="20.0" y="594.0" width="320.0" height="70.0" rx="16" fill="#141d27" opacity="1"/><rect x="20.0" y="594.0" width="5.0" height="70.0" rx="2" fill="#5ce1e6" opacity="1"/><rect x="40.0" y="610.0" width="160.0" height="9.0" rx="4.5" fill="#dfe6e8" opacity="1"/><rect x="40.0" y="628.0" width="110.0" height="6.0" rx="3.0" fill="#4b5a68" opacity="1"/><rect x="264.0" y="612.0" width="56.0" height="8.0" rx="4.0" fill="#5ce1e6" opacity="0.8"/><rect x="0.0" y="696.0" width="360.0" height="84.0" rx="0" fill="#141d27" opacity="1"/><rect x="25.0" y="716.0" width="22.0" height="22.0" rx="6" fill="#4b5a68" opacity="1"/><rect x="22.0" y="744.0" width="28.0" height="5.0" rx="2.5" fill="#34424f" opacity="1"/><rect x="97.0" y="716.0" width="22.0" height="22.0" rx="6" fill="#5ce1e6" opacity="1"/><rect x="94.0" y="744.0" width="28.0" height="5.0" rx="2.5" fill="#5ce1e6" opacity="1"/><rect x="169.0" y="716.0" width="22.0" height="22.0" rx="6" fill="#4b5a68" opacity="1"/><rect x="166.0" y="744.0" width="28.0" height="5.0" rx="2.5" fill="#34424f" opacity="1"/><rect x="241.0" y="716.0" width="22.0" height="22.0" rx="6" fill="#4b5a68" opacity="1"/><rect x="238.0" y="744.0" width="28.0" height="5.0" rx="2.5" fill="#34424f" opacity="1"/><rect x="313.0" y="716.0" width="22.0" height="22.0" rx="6" fill="#4b5a68" opacity="1"/><rect x="310.0" y="744.0" width="28.0" height="5.0" rx="2.5" fill="#34424f" opacity="1"/><rect x="120.0" y="766.0" width="120.0" height="5.0" rx="2.5" fill="#dfe6e8" opacity="0.7"/></svg>